<svg xmlns="http://www.w3.org/2000/svg" viewBox="0 0 620 180" role="img" aria-labelledby="title desc">
  <title id="title">Comunidade Terapêutica É Preciso Acreditar</title>
  <desc id="desc">Marca institucional em azul, verde e dourado</desc>
  <defs>
    <linearGradient id="sun" x1="0" x2="1" y1="0" y2="1">
      <stop offset="0" stop-color="#FFD94A" />
      <stop offset="1" stop-color="#F6B21A" />
    </linearGradient>
    <linearGradient id="blue" x1="0" x2="1" y1="0" y2="1">
      <stop offset="0" stop-color="#00AEEF" />
      <stop offset="1" stop-color="#0057B8" />
    </linearGradient>
    <linearGradient id="green" x1="0" x2="1" y1="0" y2="1">
      <stop offset="0" stop-color="#2EC866" />
      <stop offset="1" stop-color="#008C3A" />
    </linearGradient>
  </defs>

  <g transform="translate(18 14)">
    <circle cx="78" cy="62" r="50" fill="url(#sun)" />
    <g stroke="#fff" stroke-width="3" opacity=".65">
      <path d="M78 12v100" />
      <path d="M28 62h100" />
      <path d="M43 27l70 70" />
      <path d="M113 27l-70 70" />
    </g>
    <path d="M78 38c10 0 18 8 18 18s-8 18-18 18-18-8-18-18 8-18 18-18Zm-43 88c22-20 44-32 65-35 7-1 12 7 8 13-14 22-37 35-73 22Z" fill="url(#blue)" />
    <path d="M122 126c-22-20-44-32-65-35-7-1-12 7-8 13 14 22 37 35 73 22Z" fill="url(#green)" />
    <path d="M77 28c17 26 34 45 55 57" fill="none" stroke="#fff" stroke-width="10" stroke-linecap="round" />
    <path d="M77 28C60 54 43 73 22 85" fill="none" stroke="#fff" stroke-width="10" stroke-linecap="round" />
  </g>

  <g transform="translate(160 34)">
    <text x="0" y="30" font-family="Georgia, serif" font-size="24" font-weight="700" fill="#0057B8">Comunidade Terapêutica</text>
    <text x="0" y="82" font-family="Georgia, serif" font-size="54" font-weight="700" fill="#0057B8">É Preciso</text>
    <text x="0" y="130" font-family="Georgia, serif" font-size="50" font-weight="700" fill="#008C3A">Acreditar</text>
    <path d="M0 142c120 20 246 18 392-5" fill="none" stroke="#00AEEF" stroke-width="5" stroke-linecap="round" />
    <path d="M0 154c116 17 248 18 392-4" fill="none" stroke="#008C3A" stroke-width="5" stroke-linecap="round" />
  </g>
</svg>
